<?xml version="1.0" standalone="no"?><svg xmlns="http://www.w3.org/2000/svg" viewBox="0 0 1440 320"><path fill="#e7008a" fill-opacity="0.8" d="M0,288L0,256L40,256L40,0L80,0L80,256L120,256L120,32L160,32L160,96L200,96L200,160L240,160L240,288L280,288L280,64L320,64L320,256L360,256L360,288L400,288L400,128L440,128L440,192L480,192L480,224L520,224L520,192L560,192L560,128L600,128L600,224L640,224L640,32L680,32L680,32L720,32L720,96L760,96L760,64L800,64L800,224L840,224L840,320L880,320L880,192L920,192L920,160L960,160L960,256L1000,256L1000,128L1040,128L1040,128L1080,128L1080,288L1120,288L1120,288L1160,288L1160,192L1200,192L1200,0L1240,0L1240,128L1280,128L1280,96L1320,96L1320,288L1360,288L1360,160L1400,160L1400,288L1440,288L1440,0L1400,0L1400,0L1360,0L1360,0L1320,0L1320,0L1280,0L1280,0L1240,0L1240,0L1200,0L1200,0L1160,0L1160,0L1120,0L1120,0L1080,0L1080,0L1040,0L1040,0L1000,0L1000,0L960,0L960,0L920,0L920,0L880,0L880,0L840,0L840,0L800,0L800,0L760,0L760,0L720,0L720,0L680,0L680,0L640,0L640,0L600,0L600,0L560,0L560,0L520,0L520,0L480,0L480,0L440,0L440,0L400,0L400,0L360,0L360,0L320,0L320,0L280,0L280,0L240,0L240,0L200,0L200,0L160,0L160,0L120,0L120,0L80,0L80,0L40,0L40,0L0,0L0,0Z"></path></svg>